<?xml version="1.0" standalone="no"?>
<!DOCTYPE svg PUBLIC "-//W3C//DTD SVG 20010904//EN"
 "http://www.w3.org/TR/2001/REC-SVG-20010904/DTD/svg10.dtd">
<svg version="1.0" xmlns="http://www.w3.org/2000/svg"
 width="525.000000pt" height="525.000000pt" viewBox="0 0 525.000000 525.000000"
 preserveAspectRatio="xMidYMid meet">
<metadata>
Created by potrace 1.14, written by Peter Selinger 2001-2017
</metadata>
<g transform="translate(0.000000,525.000000) scale(0.100000,-0.100000)"
fill="#000000" stroke="none">
<path d="M80 5109 c-20 -9 -45 -29 -55 -45 -19 -28 -19 -74 -20 -2434 0 -2632
-4 -2450 60 -2490 32 -20 48 -20 936 -20 877 0 905 1 936 20 60 36 58 15 63
644 l5 580 285 -384 c308 -415 326 -438 333 -430 2 3 71 95 153 205 82 110
154 206 161 215 7 8 78 102 158 209 l145 194 0 -574 c0 -526 1 -577 18 -609
35 -71 -16 -67 986 -68 969 0 925 -2 976 53 l25 27 1 2414 c1 2243 0 2417 -16
2447 -9 18 -32 40 -51 49 -32 17 -96 18 -926 18 -508 0 -902 -4 -915 -9 -28
-11 -47 -29 -113 -106 -27 -32 -55 -63 -60 -69 -6 -6 -85 -96 -175 -201 -90
-104 -178 -205 -195 -224 -16 -19 -34 -39 -40 -45 -12 -13 -127 -149 -133
-156 -5 -6 -39 36 -347 431 -220 281 -269 341 -292 357 -25 16 -93 17 -947 17
-826 0 -923 -1 -956 -16z"/>
</g>
</svg>
